<?xml version="1.0" encoding="UTF-8" standalone="no"?>
<svg
   xmlns:dc="http://purl.org/dc/elements/1.1/"
   xmlns:cc="http://creativecommons.org/ns#"
   xmlns:rdf="http://www.w3.org/1999/02/22-rdf-syntax-ns#"
   xmlns:svg="http://www.w3.org/2000/svg"
   xmlns="http://www.w3.org/2000/svg"
   xmlns:sodipodi="http://sodipodi.sourceforge.net/DTD/sodipodi-0.dtd"
   xmlns:inkscape="http://www.inkscape.org/namespaces/inkscape"
   version="1.1"
   viewBox="0 0 512 512"
   enable-background="new 0 0 512 512"
   id="svg4"
   sodipodi:docname="plug.svg"
   inkscape:version="1.0.2 (e86c870879, 2021-01-15)">
  <metadata
     id="metadata10">
    <rdf:RDF>
      <cc:Work
         rdf:about="">
        <dc:format>image/svg+xml</dc:format>
        <dc:type
           rdf:resource="http://purl.org/dc/dcmitype/StillImage" />
      </cc:Work>
    </rdf:RDF>
  </metadata>
  <defs
     id="defs8" />
  <sodipodi:namedview
     pagecolor="#ffffff"
     bordercolor="#666666"
     borderopacity="1"
     objecttolerance="10"
     gridtolerance="10"
     guidetolerance="10"
     inkscape:pageopacity="0"
     inkscape:pageshadow="2"
     inkscape:window-width="660"
     inkscape:window-height="480"
     id="namedview6"
     showgrid="false"
     inkscape:zoom="1.3007812"
     inkscape:cx="256"
     inkscape:cy="440.5045"
     inkscape:window-x="0"
     inkscape:window-y="0"
     inkscape:window-maximized="0"
     inkscape:current-layer="svg4" />
  <path
     d="M480,128c0-17.672-14.328-32-32-32h-16V32c0-17.672-14.328-32-32-32s-32,14.328-32,32v64h-64V32c0-17.672-14.328-32-32-32  s-32,14.328-32,32v64h-16c-17.672,0-32,14.328-32,32c0,15.473,10.987,28.379,25.584,31.352l40.455,107.883  C262.719,279.727,274.664,288,288,288h16v96c0,35.289-28.711,64-64,64s-64-28.711-64-64c0-61.758-50.242-112-112-112  c-17.672,0-32,14.328-32,32s14.328,32,32,32c26.469,0,48,21.531,48,48c0,70.578,57.422,128,128,128s128-57.422,128-128v-96h16  c13.336,0,25.281-8.273,29.961-20.766l40.455-107.883C469.013,156.379,480,143.473,480,128z"
     id="path2"
     style="fill:#ffffff" />
</svg>
